<svg width="217" height="149" viewBox="0 0 217 149" fill="none" xmlns="http://www.w3.org/2000/svg">
<g clip-path="url(#clip0_8_26)">
<path d="M166.14 147.315C163.362 144.619 161.675 140.36 162.117 136.214C162.56 132.067 165.301 128.256 168.856 127.375C172.412 126.495 176.465 128.932 177.545 132.921C178.139 125.23 178.824 117.218 182.384 110.669C185.608 104.739 191.191 100.495 197.242 99.7362C203.293 98.9771 209.664 101.844 213.438 107.329C217.212 112.815 218.136 120.789 215.493 127.086C213.545 131.726 209.958 135.178 206.2 137.987C194.055 146.987 179.488 150.646 165.181 148.293L166.14 147.315Z" fill="#F2F2F2"/>
<path d="M207.454 102.003C202.461 106.674 197.881 111.897 193.779 117.599C187.36 126.491 182.165 136.46 178.376 147.16C178.099 147.941 179.203 148.28 179.477 147.508C185.676 130.119 195.573 114.792 208.261 102.93C208.831 102.397 208.019 101.475 207.454 102.003Z" fill="white"/>
<path d="M69.8558 146.583C73.6716 142.879 75.9894 137.03 75.3816 131.335C74.7738 125.64 71.009 120.404 66.1255 119.195C61.2421 117.986 55.6752 121.333 54.192 126.812C53.3756 116.249 52.435 105.244 47.5452 96.2486C43.1176 88.1036 35.4489 82.2756 27.1378 81.2329C18.8266 80.1903 10.0761 84.1282 4.89274 91.6622C-0.290605 99.1961 -1.55972 110.149 2.07056 118.798C4.74486 125.17 9.67186 129.912 14.8341 133.77C31.3036 146.078 51.7339 151.211 71.1737 147.926" fill="#F2F2F2"/>
<path d="M13.1115 84.3465C19.9692 90.7616 26.2604 97.9364 31.8941 105.767C37.5288 113.59 42.4895 122.022 46.7065 130.944C49.0637 135.95 51.1812 141.099 53.0495 146.369C53.4305 147.442 51.9146 147.908 51.5379 146.848C48.2286 137.556 44.1343 128.66 39.3138 120.285C34.5168 111.941 29.0263 104.151 22.9194 97.025C19.4654 92.9963 15.8211 89.1887 12.003 85.6195C11.2204 84.8877 12.3353 83.6206 13.1115 84.3465Z" fill="white"/>
<path d="M155.766 148.674H64.7259V41.3938C64.7259 18.5691 80.8942 0 100.768 0H119.724C139.598 0 155.766 18.5691 155.766 41.3938V148.674Z" fill="#F2F2F2"/>
<path d="M136.81 148.674H64.7259V41.3938C64.706 32.6479 67.1173 24.123 71.6089 17.0604C71.7745 16.8012 71.9396 16.5454 72.11 16.2924C74.2825 13.0198 76.8679 10.1378 79.7808 7.74132C79.9454 7.60381 80.1106 7.4687 80.2782 7.33358C82.7157 5.39636 85.3523 3.81272 88.1282 2.6187C88.293 2.54695 88.4608 2.47505 88.6287 2.40609C91.1392 1.37714 93.7416 0.672314 96.3879 0.304626C96.5519 0.278887 96.7204 0.258746 96.8888 0.238605C99.4676 -0.0780702 102.068 -0.0780702 104.647 0.238605C104.815 0.258746 104.984 0.278885 105.15 0.304901C107.795 0.672613 110.397 1.37735 112.907 2.4061C113.075 2.47506 113.243 2.54696 113.408 2.61885C116.15 3.7978 118.755 5.35781 121.167 7.26407C121.334 7.39625 121.502 7.53137 121.667 7.66649C123.3 9.00505 124.834 10.4963 126.252 12.125C127.39 13.4314 128.451 14.8239 129.426 16.2932C129.596 16.5454 129.761 16.8013 129.926 17.06C134.418 24.1227 136.83 32.6477 136.81 41.3938V148.674Z" fill="#CCCCCC"/>
<path d="M130.948 100.691C133.152 100.691 134.939 98.6394 134.939 96.1081C134.939 93.5767 133.152 91.5247 130.948 91.5247C128.744 91.5247 126.957 93.5767 126.957 96.1081C126.957 98.6394 128.744 100.691 130.948 100.691Z" fill="white"/>
<path d="M148.308 145.461H145.25L143.795 131.914L148.309 131.915L148.308 145.461Z" fill="#FFB8B8"/>
<path d="M143.066 144.457H148.963V148.722H139.353C139.353 148.162 139.449 147.607 139.635 147.09C139.822 146.572 140.095 146.102 140.44 145.706C140.785 145.31 141.194 144.996 141.645 144.782C142.095 144.567 142.578 144.457 143.066 144.457Z" fill="#2F2E41"/>
<path d="M163.523 145.461H160.465L159.01 131.914L163.523 131.915L163.523 145.461Z" fill="#FFB8B8"/>
<path d="M158.281 144.457H164.178V148.722H154.568C154.568 148.162 154.664 147.607 154.85 147.09C155.037 146.572 155.31 146.102 155.655 145.706C156 145.31 156.409 144.996 156.86 144.782C157.31 144.567 157.793 144.457 158.281 144.457Z" fill="#2F2E41"/>
<path d="M132.968 97.016C132.748 96.6438 132.602 96.2206 132.54 95.7765C132.477 95.3323 132.501 94.8778 132.608 94.4451C132.715 94.0125 132.904 93.612 133.16 93.2721C133.417 92.9321 133.735 92.6609 134.093 92.4776L144.488 59.5726L149.603 62.7785L137.734 94.2237C137.963 94.9343 137.956 95.7164 137.716 96.4218C137.476 97.1273 137.019 97.707 136.431 98.0512C135.844 98.3954 135.167 98.4801 134.528 98.2893C133.89 98.0985 133.335 97.6455 132.968 97.016Z" fill="#FFB8B8"/>
<path d="M161.961 103.199C161.621 102.975 161.328 102.669 161.103 102.301C160.877 101.933 160.725 101.513 160.656 101.07C160.587 100.627 160.604 100.172 160.704 99.7373C160.805 99.3026 160.988 98.8985 161.239 98.5536L158.019 63.7457L163.84 64.0512L165.178 98.2892C165.655 98.8129 165.948 99.5191 166.001 100.274C166.055 101.029 165.865 101.78 165.468 102.385C165.072 102.991 164.496 103.408 163.849 103.558C163.203 103.708 162.531 103.58 161.961 103.199Z" fill="#FFB8B8"/>
<path d="M152.675 53.4778C156.058 53.4778 158.801 50.3278 158.801 46.442C158.801 42.5562 156.058 39.4062 152.675 39.4062C149.291 39.4062 146.549 42.5562 146.549 46.442C146.549 50.3278 149.291 53.4778 152.675 53.4778Z" fill="#FFB8B8"/>
<path d="M161.922 95.2827H143.453L143.475 95.1176C143.508 94.8709 146.767 70.3561 144.363 62.336C144.122 61.5479 144.143 60.6852 144.423 59.9139C144.702 59.1426 145.22 58.5174 145.877 58.1584C149.312 56.3006 155.906 54.013 161.471 59.5647C162.29 60.3951 162.93 61.433 163.339 62.5962C163.749 63.7594 163.917 65.016 163.831 66.2668L161.922 95.2827Z" fill="#76115B"/>
<path d="M147 73.979L138.685 72.0416L142.582 61.434C142.816 60.4066 143.394 59.5273 144.191 58.9892C144.988 58.451 145.938 58.2978 146.833 58.5632C147.729 58.8286 148.496 59.4909 148.966 60.4049C149.437 61.3188 149.572 62.4098 149.343 63.4385L147 73.979Z" fill="#76115B"/>
<path d="M157.649 77.5763L157.149 64.4158C156.77 61.9419 158.004 59.6032 159.9 59.2209C161.797 58.84 163.649 60.5559 164.03 63.048L165.909 75.3452L157.649 77.5763Z" fill="#76115B"/>
<path d="M161.307 93.7071C164.279 106.706 164.603 123.233 163.802 141.26L159.811 140.687L152.577 106.311L148.587 141.26L144.097 140.973C142.756 122.058 141.45 105.82 143.598 95.1394L161.307 93.7071Z" fill="#2F2E41"/>
<path d="M156.711 51.8795C155.568 53.2776 153.446 52.5271 153.297 50.617C153.285 50.4687 153.286 50.3194 153.3 50.1713C153.376 49.3252 153.802 48.5571 153.7 47.6638C153.677 47.4414 153.605 47.2295 153.491 47.0482C152.58 45.6476 150.442 47.6746 149.582 46.4067C149.055 45.6292 149.675 44.4051 149.271 43.5362C148.737 42.3893 147.156 42.9551 146.164 42.327C145.061 41.6282 145.127 39.6843 145.853 38.502C146.739 37.06 148.292 36.2906 149.825 36.1797C151.358 36.0688 152.881 36.5449 154.313 37.1856C155.939 37.9136 157.552 38.9197 158.553 40.5623C159.77 42.5599 159.887 45.2454 159.279 47.5811C158.908 49.002 157.644 50.7377 156.711 51.8795Z" fill="#2F2E41"/>
<path d="M209.513 148.858H25.3635C25.2848 148.858 25.2095 148.822 25.154 148.758C25.0985 148.694 25.0673 148.607 25.0673 148.517C25.0673 148.427 25.0985 148.34 25.154 148.276C25.2095 148.212 25.2848 148.176 25.3635 148.176H209.513C209.591 148.176 209.667 148.212 209.722 148.276C209.778 148.34 209.809 148.427 209.809 148.517C209.809 148.607 209.778 148.694 209.722 148.758C209.667 148.822 209.591 148.858 209.513 148.858Z" fill="#3F3D56"/>
<path d="M116.98 117.593H84.5552C84.1281 117.595 83.7176 117.403 83.4137 117.059C83.1098 116.714 82.9372 116.245 82.9339 115.755V32.6324C82.9372 32.142 83.1098 31.673 83.4137 31.3285C83.7176 30.984 84.1281 30.792 84.5552 30.7946H116.98C117.407 30.792 117.818 30.984 118.122 31.3285C118.426 31.673 118.598 32.142 118.602 32.6324V115.755C118.598 116.245 118.426 116.714 118.122 117.059C117.818 117.403 117.407 117.595 116.98 117.593Z" fill="white"/>
<path d="M118.602 57.6905H82.9339V58.2634H118.602V57.6905Z" fill="#CCCCCC"/>
<path d="M118.726 90.3788H83.0586V90.9517H118.726V90.3788Z" fill="#CCCCCC"/>
<path d="M94.6569 30.7947H94.158V117.879H94.6569V30.7947Z" fill="#CCCCCC"/>
<path d="M107.128 30.7947H106.629V117.879H107.128V30.7947Z" fill="#CCCCCC"/>
</g>
<defs>
<clipPath id="clip0_8_26">
<rect width="217" height="149" fill="white"/>
</clipPath>
</defs>
</svg>
